<?xml version="1.0" encoding="utf-8"?>
<!-- Generator: Adobe Illustrator 25.0.1, SVG Export Plug-In . SVG Version: 6.00 Build 0)  -->
<svg version="1.1" id="Calque_1" xmlns="http://www.w3.org/2000/svg" xmlns:xlink="http://www.w3.org/1999/xlink" x="0px" y="0px"
	 viewBox="0 0 1004.9 976" style="enable-background:new 0 0 1004.9 976;" xml:space="preserve">
<style type="text/css">
	.st0{fill:#0091C7;}
	.st1{fill:#233B5B;}
</style>
<g>
	<path class="st0" d="M731.8,132.8c0.3,0.2,0.6,0.4,0.8,0.6C731.9,133.9,731.7,133.7,731.8,132.8
		C731.7,132.8,731.8,132.8,731.8,132.8z"/>
	<g>
		<path class="st1" d="M364.9,368.7h57.7l0.1,4.3l-0.1,144.6l-22.3-13.1c0,0,0-3.6,0-5.9c-0.1-33.6,0-100.9,0-100.9v-6.9l-88.4,0.1
			h-8.2l39.9-34.7l201.1-174.7l68.3,62.7v-11.9l13.3,0.1l48.8-0.1h5.7v74.2l87.5,79.4l5.4,5h-18.5l-65.6-0.1v7v104.9v6.6l-22.1,12.1
			v-6.7l-0.2-139l0.2-6.9c0,0,33.3,0,48.7,0C711.7,364.6,544,210.9,544,210.9L364.9,368.7z"/>
		<rect x="497.4" y="319.4" class="st1" width="45.5" height="45.5"/>
		<rect x="549.3" y="319.4" class="st1" width="45.5" height="45.5"/>
		<rect x="497.4" y="371.3" class="st1" width="45.5" height="45.5"/>
		<rect x="549.3" y="371.3" class="st1" width="45.5" height="45.5"/>
	</g>
	<g>
		<path class="st1" d="M741.3,472.9c-47.7,46.3-104.6,73.7-170.9,79c-60.3,4.8-117-8.7-168.2-41.6c-47.1-30.2-83.1-70.6-107.7-120.9
			c-24-49-34-100.8-31.8-155.2c0.1-2.2,0-4.5,0-6.7c-0.6,0.1-1.3,0.2-1.9,0.3C242,317.6,258,400.2,315.4,473
			c47.9,60.7,111.1,96.2,187.8,106c76.8,9.9,146.3-9.8,209.6-54c-0.3,1.6-0.9,2.5-1.7,3.2c-21.5,19.3-45.1,35.7-71.4,47.6
			c-75.1,34.2-151.9,36.1-229.3,8.8c-48-16.9-89.4-44.2-123-82.7c-26.6-30.5-45.2-65.4-57.9-103.8c-17.7-53.5-20.6-107.7-7.4-162.4
			c6-24.9,14.9-49.1,27.6-71.6c21.9-38.6,51.6-69.5,89.7-92.3c32-19.2,66.9-30.8,103.4-38c13.9-2.7,27.9-5.3,42.3-5.5
			c-0.5,1.5-1.5,1.4-2.3,1.6c-40,7.8-77.4,21.9-110.8,45.5c-28,19.8-50.4,44.6-67.7,74.2c-2.3,3.9-1.7,6.1,1.6,9
			c14.8,13.3,31.1,24.4,48.9,33.2c32.9,16.2,67.4,23.8,104.1,17.1c26-4.7,49.4-14.8,70.8-30.7c24.9-18.6,52.7-32.3,82.2-42.1
			c28.5-9.5,57.8-14.1,88-10.2c10.8,1.4,21.2,4.8,31.8,6.9l0.1-0.1c-0.3-3.1-2.7-5.1-4.4-7.3c-13.8-18.2-29.3-34.7-46.6-49.5
			c-60.6-52-130.3-78.6-210.6-75.7c-29.1,1-57.7,5.1-85.2,14.5C349.2,27,316.3,45,285.7,67.2c-56.8,41.2-98.5,93.9-120,161
			c-21.2,66.5-21.5,134.2-1.6,201.1c29.2,98.1,91.5,167.2,186.4,206.4c34.6,14.3,71,21.5,108.2,24.5c26.2,2.2,52.7,3,78.6-1.5
			c66.3-11.5,124-41,172.8-87.4c32.2-30.6,56.5-66.8,75-107.1c13.7-29.8,21.7-61.5,30.7-92.9c3.7-12.8,6.5-25.7,7.6-39.1
			C808.1,386.2,781.7,433.6,741.3,472.9z"/>
		<polygon class="st1" points="816.2,171.7 801,223.4 749.3,238.5 801,253.7 816.2,305.4 831.3,253.7 883,238.5 831.3,223.4 		"/>
		<polygon class="st1" points="890.4,143.4 882.3,116 874.3,143.4 846.9,151.4 874.3,159.4 882.3,186.8 890.4,159.4 917.7,151.4 		
			"/>
		<polygon class="st1" points="776.6,171.9 784.6,144.6 812,136.6 784.6,128.5 776.6,101.2 768.5,128.5 741.2,136.6 768.5,144.6 		
			"/>
	</g>
</g>
<g>
	<path class="st1" d="M227.1,903.6c0.8,1.9,1.5,3.7,2.3,5.4c0.8,1.7,1.4,3.3,2,4.8c0.8,1.7,1.4,3.4,2,5.1c-5.6,1.5-11,2-16.1,1.4
		c-4.3-0.4-8.7-1.7-13.1-4c-4.4-2.3-7.9-6.4-10.3-12.4c-1.1-2.6-3.2-7.8-6.2-15.5c-3-7.7-6.6-16.8-10.7-27.1H96.6
		c-4.1,10.4-7.7,19.4-10.7,27.1c-3,7.7-5.1,12.9-6.2,15.5c-2.6,6-6.1,10.2-10.4,12.4c-4.3,2.3-8.7,3.6-13,4
		c-5.1,0.6-10.4,0.1-16.1-1.4c0.6-1.7,1.2-3.4,2-5.1c0.6-1.5,1.2-3.1,1.8-4.8c0.7-1.7,1.5-3.5,2.4-5.4c1.3-3.4,3.6-9.2,6.9-17.5
		c3.3-8.3,7.1-17.8,11.4-28.5s8.9-22,13.7-33.9s9.3-23.2,13.6-33.9c4.2-10.7,8.1-20.2,11.4-28.4s5.7-14,7.1-17.4
		c2.1-5.3,4.3-9.5,6.6-12.6c2.4-3.1,4.7-5.5,6.9-7.2s4.5-2.8,6.6-3.2c2.2-0.5,4.2-0.7,6.1-0.7c1.9,0,3.9,0.2,6.1,0.7
		c2.2,0.5,4.4,1.6,6.6,3.2s4.6,4.1,6.9,7.2c2.4,3.1,4.6,7.3,6.6,12.6c1.3,3.4,3.6,9.2,6.9,17.4c3.3,8.2,7.1,17.7,11.4,28.4
		c4.3,10.7,8.9,22,13.7,33.9c4.8,11.9,9.4,23.2,13.7,33.9c4.3,10.7,8.1,20.2,11.4,28.5C223.5,894.4,225.8,900.2,227.1,903.6z
		 M166.1,833.2c-3.8-9.4-7.4-18.6-11-27.5c-3.6-8.9-6.7-17-9.3-24.2c-3.4-8.3-6.4-16.2-9-23.7c-3,7.5-6.1,15.5-9.3,23.7
		c-2.8,7.2-5.9,15.2-9.3,24.2c-3.4,9-7,18.1-10.7,27.5H166.1z"/>
	<path class="st1" d="M303,892c0,5.7,0,10.3,0.1,13.8c0.1,3.6,0.2,6.4,0.4,8.5c0.2,2.3,0.4,4,0.6,5.1c-11.7,0-20.6-2.5-26.8-7.3
		c-6.2-4.9-9.3-13-9.3-24.3l0.6-136.8h-62.2c0-8.5,2.4-15.3,7.1-20.3c4.7-5.1,11.4-7.6,20.1-7.6h131.7c0,8.5-2.4,15.3-7.1,20.3
		c-4.7,5.1-11.4,7.6-20.1,7.6h-35.3L303,892z"/>
	<path class="st1" d="M481.7,892c0,5.7,0,10.3,0.1,13.8c0.1,3.6,0.2,6.4,0.4,8.5c0.2,2.3,0.4,4,0.6,5.1c-11.7,0-20.6-2.5-26.8-7.3
		c-6.2-4.9-9.3-13-9.3-24.3l0.6-136.8H385c0-8.5,2.3-15.3,7.1-20.3c4.7-5.1,11.4-7.6,20.1-7.6h131.7c0,8.5-2.4,15.3-7.1,20.3
		c-4.7,5.1-11.4,7.6-20.1,7.6h-35.3L481.7,892z"/>
	<path class="st1" d="M566.1,892V754.4c0-11.3,3.1-19.4,9.2-24.2s15-7.2,26.7-7.2c-0.2,1.1-0.4,2.8-0.6,5.1
		c-0.2,2.1-0.3,4.8-0.4,8.3c-0.1,3.5-0.1,8-0.1,13.7l-0.6,137.6c0,11.3-3,19.4-9,24.3c-6,4.9-14.8,7.3-26.3,7.3
		c0.2-1.1,0.4-2.8,0.6-5.1c0.2-2.1,0.3-4.9,0.3-8.5C565.8,902.3,565.9,897.6,566.1,892z"/>
	<path class="st1" d="M642.7,748.7c-0.2-5.7-0.3-10.2-0.3-13.7c0-3.5-0.1-6.3-0.3-8.3c-0.2-2.3-0.4-4-0.6-5.1
		c23,0,34.5,11,34.5,33.1l0.6,71.8c0,12.2,0.5,22.5,1.5,30.8c1,8.3,3.2,15,6.5,20.1c3.3,5.1,8,8.7,14.1,10.9
		c6.1,2.2,14.3,3.2,24.4,3.2c4.7,0,9,0,12.9-0.1c3.9-0.1,7.1-0.2,9.8-0.4c3.2-0.2,6-0.5,8.5-0.8v1.7c0,3-0.7,6.2-2.1,9.5
		s-3.6,6.3-6.5,8.9s-6.6,4.8-11,6.6c-4.4,1.8-9.8,2.7-16,2.7c-15.1,0-27.5-1.6-37.3-4.7c-9.8-3.1-17.6-8.3-23.3-15.7
		c-5.8-7.3-9.8-17.1-12-29.2s-3.4-27.2-3.4-45.1L642.7,748.7L642.7,748.7z"/>
	<path class="st1" d="M958.6,903.6c0.8,1.9,1.5,3.7,2.3,5.4c0.8,1.7,1.4,3.3,2,4.8c0.8,1.7,1.4,3.4,2,5.1c-5.7,1.5-11,2-16.1,1.4
		c-4.3-0.4-8.7-1.7-13.1-4s-7.9-6.4-10.3-12.4c-1.1-2.6-3.2-7.8-6.2-15.5c-3-7.7-6.6-16.8-10.7-27.1h-80.2
		c-4.2,10.4-7.7,19.4-10.7,27.1c-3,7.7-5.1,12.9-6.2,15.5c-2.6,6-6.1,10.2-10.5,12.4c-4.3,2.3-8.7,3.6-13,4
		c-5.1,0.6-10.5,0.1-16.1-1.4c0.6-1.7,1.2-3.4,2-5.1c0.6-1.5,1.2-3.1,1.8-4.8c0.7-1.7,1.5-3.5,2.4-5.4c1.3-3.4,3.6-9.2,6.9-17.5
		c3.3-8.3,7.1-17.8,11.4-28.5s8.9-22,13.7-33.9s9.3-23.2,13.6-33.9s8-20.2,11.4-28.4s5.7-14,7.1-17.4c2.1-5.3,4.3-9.5,6.6-12.6
		c2.3-3.1,4.7-5.5,6.9-7.2s4.5-2.8,6.6-3.2c2.2-0.5,4.2-0.7,6.1-0.7c1.9,0,3.9,0.2,6.1,0.7c2.2,0.5,4.4,1.6,6.6,3.2s4.6,4.1,6.9,7.2
		c2.3,3.1,4.6,7.3,6.6,12.6c1.3,3.4,3.6,9.2,6.9,17.4c3.3,8.2,7.1,17.7,11.4,28.4c4.3,10.7,8.9,22,13.7,33.9
		c4.8,11.9,9.4,23.2,13.7,33.9s8.2,20.2,11.4,28.5C955,894.4,957.3,900.2,958.6,903.6z M897.6,833.2c-3.8-9.4-7.4-18.6-11-27.5
		c-3.6-8.9-6.7-17-9.3-24.2c-3.4-8.3-6.4-16.2-9-23.7c-3,7.5-6.1,15.5-9.3,23.7c-2.8,7.2-5.9,15.2-9.3,24.2c-3.4,9-7,18.1-10.7,27.5
		H897.6z"/>
</g>
</svg>
