<?xml version="1.0" encoding="utf-8"?>
<!-- Generator: Adobe Illustrator 25.0.1, SVG Export Plug-In . SVG Version: 6.00 Build 0)  -->
<svg version="1.1" id="Calque_1" xmlns="http://www.w3.org/2000/svg" xmlns:xlink="http://www.w3.org/1999/xlink" x="0px" y="0px"
	 viewBox="0 0 859.1 662" style="enable-background:new 0 0 859.1 662;" xml:space="preserve">
<style type="text/css">
	.st0{fill:#0091C7;}
	.st1{fill:#BEC6D0;}
</style>
<g>
	<path class="st0" d="M658.9,132.8c0.3,0.2,0.6,0.4,0.8,0.6C659,133.9,658.8,133.7,658.9,132.8C658.8,132.8,658.9,132.8,658.9,132.8
		z"/>
	<g>
		<path class="st1" d="M292,368.7h57.7l0.1,4.3l-0.1,144.6l-22.3-13.1c0,0,0-3.6,0-5.9c-0.1-33.6,0-100.9,0-100.9v-6.9l-88.4,0.1
			h-8.2l39.9-34.7l201.1-174.7l68.3,62.7v-11.9l13.3,0.1l48.8-0.1h5.7v74.2l87.5,79.4l5.4,5h-18.5l-65.6-0.1v7v104.9v6.6l-22.1,12.1
			v-6.7l-0.2-139l0.2-6.9c0,0,33.3,0,48.7,0c-4.5-4.2-172.2-157.9-172.2-157.9L292,368.7z"/>
		<rect x="424.5" y="319.4" class="st1" width="45.5" height="45.5"/>
		<rect x="476.4" y="319.4" class="st1" width="45.5" height="45.5"/>
		<rect x="424.5" y="371.3" class="st1" width="45.5" height="45.5"/>
		<rect x="476.4" y="371.3" class="st1" width="45.5" height="45.5"/>
	</g>
	<g>
		<path class="st1" d="M668.4,472.9c-47.7,46.3-104.6,73.7-170.9,79c-60.3,4.8-117-8.7-168.2-41.6c-47.1-30.2-83.1-70.6-107.7-120.9
			c-24-49-34-100.8-31.8-155.2c0.1-2.2,0-4.5,0-6.7c-0.6,0.1-1.3,0.2-1.9,0.3c-18.8,89.8-2.8,172.4,54.6,245.2
			c47.9,60.7,111.1,96.2,187.8,106c76.8,9.9,146.3-9.8,209.6-54c-0.3,1.6-0.9,2.5-1.7,3.2c-21.5,19.3-45.1,35.7-71.4,47.6
			c-75.1,34.2-151.9,36.1-229.3,8.8c-48-16.9-89.4-44.2-123-82.7c-26.6-30.5-45.2-65.4-57.9-103.8c-17.7-53.5-20.6-107.7-7.4-162.4
			c6-24.9,14.9-49.1,27.6-71.6c21.9-38.6,51.6-69.5,89.7-92.3c32-19.2,66.9-30.8,103.4-38c13.9-2.7,27.9-5.3,42.3-5.5
			c-0.5,1.5-1.5,1.4-2.3,1.6c-40,7.8-77.4,21.9-110.8,45.5c-28,19.8-50.4,44.6-67.7,74.2c-2.3,3.9-1.7,6.1,1.6,9
			c14.8,13.3,31.1,24.4,48.9,33.2c32.9,16.2,67.4,23.8,104.1,17.1c26-4.7,49.4-14.8,70.8-30.7c24.9-18.6,52.7-32.3,82.2-42.1
			c28.5-9.5,57.8-14.1,88-10.2c10.8,1.4,21.2,4.8,31.8,6.9l0.1-0.1c-0.3-3.1-2.7-5.1-4.4-7.3c-13.8-18.2-29.3-34.7-46.6-49.5
			C547.3,23.9,477.6-2.7,397.3,0.2c-29.1,1-57.7,5.1-85.2,14.5C276.3,27,243.4,45,212.8,67.2c-56.8,41.2-98.5,93.9-120,161
			c-21.2,66.5-21.5,134.2-1.6,201.1c29.2,98.1,91.5,167.2,186.4,206.4c34.6,14.3,71,21.5,108.2,24.5c26.2,2.2,52.7,3,78.6-1.5
			c66.3-11.5,124-41,172.8-87.4c32.2-30.6,56.5-66.8,75-107.1c13.7-29.8,21.7-61.5,30.7-92.9c3.7-12.8,6.5-25.7,7.6-39.1
			C735.2,386.2,708.8,433.6,668.4,472.9z"/>
		<polygon class="st1" points="743.3,171.7 728.1,223.4 676.4,238.5 728.1,253.7 743.3,305.4 758.4,253.7 810.1,238.5 758.4,223.4 
					"/>
		<polygon class="st1" points="817.5,143.4 809.4,116 801.4,143.4 774,151.4 801.4,159.4 809.4,186.8 817.5,159.4 844.8,151.4 		"/>
		<polygon class="st1" points="703.7,171.9 711.7,144.6 739.1,136.6 711.7,128.5 703.7,101.2 695.6,128.5 668.3,136.6 695.6,144.6 
					"/>
	</g>
</g>
</svg>
